<?xml version="1.0" encoding="utf-8"?>
<!-- Generator: Adobe Illustrator 18.0.0, SVG Export Plug-In . SVG Version: 6.00 Build 0)  -->
<!DOCTYPE svg PUBLIC "-//W3C//DTD SVG 1.1//EN" "http://www.w3.org/Graphics/SVG/1.1/DTD/svg11.dtd">
<svg version="1.1" id="Layer_1" xmlns="http://www.w3.org/2000/svg" xmlns:xlink="http://www.w3.org/1999/xlink" x="0px" y="0px"
	 viewBox="0 0 64 64" enable-background="new 0 0 64 64" xml:space="preserve">
<g>
	<g>
		<g>
			<circle fill="#28436B" cx="32" cy="32" r="32"/>
		</g>
	</g>
	<g>
		<g>
			<circle fill="#49B8EA" cx="32" cy="32" r="23"/>
		</g>
	</g>
	<g>
		<g>
			<g>
				<path fill="#40DBBD" d="M32.3,39.1c-2.4,0-5,1.7-5.5,4.3c-0.2,1.2,1.7,4.3,2.1,5.3c0.6,1.9,0.6,4.1-0.2,6
					c0.6,0.1,1.1,0.1,1.7,0.2h3.4c5.9-0.4,11.1-3,14.9-7c-3.1-0.7-7-1.8-8.7-2.7C38.5,44.5,33.9,39.1,32.3,39.1z"/>
			</g>
		</g>
		<g>
			<g>
				<path fill="#40DBBD" d="M33.9,9.1c0,1.8-0.1,2.6,0.4,4.4c0.5,1.7,4.4,6.1,5.5,6.4c1.2,0.4,3.9-0.3,5.1,0.2s-1.3,6.4-2.5,7.6
					C40.8,29.4,43,38,45,38.5c1.7,0.4,3.5-0.1,5.2,0c1.1,0.1,2.3,0.9,3.2,2C54.4,37.9,55,35,55,32C55,19.9,45.7,10,33.9,9.1z"/>
			</g>
		</g>
		<g>
			<g>
				<path fill="#40DBBD" d="M33.3,37.1c0.4-0.1,0.8-0.4,0.9-0.7c0.2-0.4,0.2-1-0.1-1.3c-0.2-0.2-0.5-0.3-0.8-0.3
					c-0.4,0-0.8,0.2-1,0.5c-0.2,0.4-0.3,0.9,0,1.3C32.4,36.8,32.9,37.2,33.3,37.1z"/>
			</g>
		</g>
		<g>
			<g>
				<path fill="#40DBBD" d="M28.7,25.4c-0.3-1.1-4.7-4.6-5.2-4.7c-0.4-0.1-2.1,1.7-2.8,2.3c-1.1,0.9-5.8-1.1-8.4-2.7
					C10.2,23.6,9,27.7,9,32c0,3.4,0.8,6.7,2.1,9.6c2.8-0.3,6.9-1.4,6.7-2.6c-0.3-1.6-0.8-3.3,0.5-4.7c0.9-0.9,2.5-0.8,3.7-0.8
					c0.9,0,1.9-0.2,2.6-0.7c0.4-0.3,4.1-5.3,4.3-5.7C29,26.6,28.8,25.9,28.7,25.4z"/>
			</g>
		</g>
	</g>
</g>
</svg>
